<svg height="200px" width="200px" version="1.1" id="Layer_1" xmlns="http://www.w3.org/2000/svg" xmlns:xlink="http://www.w3.org/1999/xlink" viewBox="0 0 512 512" xml:space="preserve" ><g id="SVGRepo_bgCarrier" stroke-width="0"></g><g id="SVGRepo_tracerCarrier" stroke-linecap="round" stroke-linejoin="round"></g><g id="SVGRepo_iconCarrier"> <g> <g> <g> <path  d="M8.233,234.457h92.754c3.856,0,7.003-3.048,7.174-6.9c1.036-23.177,3.331-45.8,6.815-67.49 c0.699-4.356-2.676-8.293-7.086-8.293H26.231c-2.906,0-5.504,1.761-6.637,4.437c-9.333,22.028-15.671,45.619-18.507,70.262 C0.597,230.725,3.951,234.457,8.233,234.457z"></path> <path  d="M60.319,108.687h60.125c3.217,0,6.065-2.12,6.944-5.214c6.632-23.368,15.521-47.291,27.1-68.994 c3.253-6.098-3.24-12.818-9.468-9.818C109.692,41.678,78.833,66.548,54.724,97C50.98,101.73,54.286,108.687,60.319,108.687z"></path> <path  d="M180.543,108.687h150.913c4.91,0,8.362-4.82,6.809-9.479 c-44.095-132.23-120.404-132.323-164.531,0C172.181,103.865,175.633,108.687,180.543,108.687z"></path> <path  d="M353.505,277.544H158.494c-4.112,0-7.375,3.45-7.177,7.556c1.189,24.59,3.861,47.749,7.715,69.186 c0.618,3.434,3.588,5.94,7.076,5.94h179.782c3.489,0,6.459-2.506,7.076-5.94c3.855-21.437,6.526-44.597,7.715-69.186 C360.88,280.994,357.617,277.544,353.505,277.544z"></path> <path  d="M114.977,351.934c-3.484-21.69-5.779-44.314-6.815-67.49c-0.172-3.852-3.318-6.9-7.174-6.9H8.233 c-4.283,0-7.636,3.73-7.147,7.985c2.837,24.643,9.175,48.233,18.507,70.262c1.133,2.676,3.731,4.437,6.637,4.437h81.659 C112.302,360.227,115.677,356.288,114.977,351.934z"></path> <path  d="M158.494,234.457h195.011c4.112,0,7.375-3.45,7.177-7.556c-1.189-24.59-3.861-47.749-7.715-69.186 c-0.618-3.434-3.588-5.94-7.076-5.94H166.109c-3.489,0-6.459,2.506-7.076,5.94c-3.855,21.437-6.526,44.597-7.715,69.186 C151.119,231.007,154.382,234.457,158.494,234.457z"></path> <path  d="M384.611,103.472c0.878,3.094,3.727,5.214,6.944,5.214h60.125c6.032,0,9.338-6.957,5.594-11.687 c-24.107-30.453-54.966-55.322-90.296-72.339c-6.228-2.999-12.721,3.72-9.468,9.818 C369.085,56.174,377.975,80.094,384.611,103.472z"></path> <path  d="M397.023,160.067c3.484,21.69,5.779,44.314,6.815,67.49c0.172,3.852,3.318,6.9,7.174,6.9h92.755 c4.283,0,7.636-3.73,7.147-7.985c-2.837-24.643-9.175-48.233-18.507-70.262c-1.133-2.676-3.731-4.437-6.637-4.437h-81.659 C399.697,151.774,396.323,155.711,397.023,160.067z"></path> <path  d="M503.765,277.544H411.01c-3.856,0-7.002,3.048-7.174,6.9c-1.036,23.178-3.331,45.8-6.815,67.49 c-0.699,4.356,2.676,8.293,7.086,8.293h81.659c2.906,0,5.504-1.761,6.637-4.437c9.333-22.028,15.671-45.619,18.507-70.262 C511.402,281.274,508.05,277.544,503.765,277.544z"></path> <path  d="M451.68,403.314h-60.125c-3.217,0-6.065,2.12-6.944,5.214 c-6.633,23.366-15.521,47.291-27.1,68.994c-3.255,6.098,3.24,12.818,9.468,9.818c35.329-17.015,66.188-41.886,90.296-72.339 C461.019,410.271,457.712,403.314,451.68,403.314z"></path> <path  d="M127.388,408.527c-0.879-3.095-3.727-5.214-6.944-5.214H60.319c-6.032,0-9.338,6.957-5.594,11.687 c24.107,30.453,54.966,55.324,90.296,72.339c6.227,3,12.721-3.72,9.468-9.818C142.914,455.825,134.023,431.901,127.388,408.527z"></path> <path  d="M331.456,403.314H180.543c-4.911,0-8.362,4.82-6.809,9.479 c44.095,132.23,120.404,132.323,164.531,0C339.819,408.134,336.366,403.314,331.456,403.314z"></path> </g> </g> </g> </g></svg>